<svg xmlns="http://www.w3.org/2000/svg" viewBox="0 0 696.9 304.81"><title>Asset 34</title><g id="Layer_2" data-name="Layer 2"><g id="Layer_1-2" data-name="Layer 1"><path fill="#ccaf2c" d="M264,304.81c-10.66,0-19.29-9.11-19.29-20.36S253.38,264.1,264,264.1a19,19,0,0,1,16.74,10.4c-3.25,1.8-3.52,2-7.14,3.82a11,11,0,0,0-9.6-5.79c-6.23,0-11.3,5.4-11.3,11.92s5.07,11.92,11.3,11.92a11,11,0,0,0,9.92-6.24c3.62,2,3.73,2.2,7.14,3.83A19,19,0,0,1,264,304.81Z"/><path fill="#ccaf2c" d="M315.6,264.55H324V304.7H315.6Z"/><path fill="#ccaf2c" d="M369.69,272h-12.1V264.6h32.46V272h-12V304.7h-8.37Z"/><path fill="#ccaf2c" d="M429.66,289.06l-14-24.51h9.43L434,280.4l8.85-15.85h9.33L438,289.29V304.7h-8.36Z"/><path fill="#fff3ef" d="M215.44,142.39l-34.31,19.75v84.64h-41V0H256.65V246.78H215.44Zm0-47.38V41H181.13v73.54Z"/><path fill="#fff3ef" d="M269,80.7V0H310.2l17,20L344.5,0h41V246.78h-41V63.18l-17.27,20-17-20v183.6H269Z"/><path fill="#fff3ef" d="M439,246.78H397.8V0H439Z"/><path fill="#fff3ef" d="M451.35,68.85V0h41.22l34.3,40V0h41.21V246.78H526.87V102.91l-34.3-39.73v183.6H451.35Z"/><path fill="#fff3ef" d="M580.42,74.92l58.24,33.66V156l-17-9.88v59.73h34.3V41h-34.3V68.11L580.42,44.42V0H696.9V246.78H580.42V74.92Z"/><path fill="#fff3ef" d="M116.48,74.92,58.24,108.58V156l17-9.88v59.73H41V41H75.27V68.11l41.21-23.69V0H0V246.78H116.48V74.92Z"/></g></g></svg>