<svg xmlns="http://www.w3.org/2000/svg" viewBox="0 0 480.19 624.2"><defs><style>.cls-1{fill:#eed25b;}</style></defs><title>Asset 29</title><g id="Layer_2" data-name="Layer 2"><g id="Layer_1-2" data-name="Layer 1"><path class="cls-1" d="M477.34,490.82A291.78,291.78,0,0,0,460,430a325.53,325.53,0,0,0-16.26-34.64,76.38,76.38,0,0,0,6.6-52.52,86.62,86.62,0,0,0-6.18-17.79,60.36,60.36,0,0,0,2.57-7.19,64,64,0,0,0,.84-31.75c-3.49-15.4-12.36-29.84-26.47-43.16a56.17,56.17,0,0,0,1.36-30.27c-4.74-21-20.69-39.84-47.38-56.13-54.11-33-89.61-54.67-98-114.79v0a11.51,11.51,0,0,0-.4-3,224,224,0,0,1-1.54-26.85A11.72,11.72,0,0,0,265.39.13a11.47,11.47,0,0,0-13.21,11.34,243.91,243.91,0,0,0,1.94,31.87q0,4.45,0,8.7c0,.29,0,.59,0,.89,0,3.85.07,7.62.19,11.3.46,25.17,1.77,45,4.06,62.35,3.34,25.32,8.81,45.48,17.21,63.44C284.12,208.27,296,224.55,312,239.8c14.85,14.17,33.69,28,59.3,43.67,32.15,19.61,51.17,41.12,56.55,63.93a55.62,55.62,0,0,1,1.45,15.7A213.63,213.63,0,0,0,393,330.94a175.93,175.93,0,0,0-50.48-24.29c-33.56-10.06-67-10.06-102.45-10.06s-68.88,0-102.44,10.06a175.93,175.93,0,0,0-50.48,24.29,213.58,213.58,0,0,0-35.85,31.67A56,56,0,0,1,52.8,347.4c5.38-22.81,24.4-44.32,56.54-63.93C135,267.84,153.8,254,168.65,239.8c16-15.25,27.9-31.53,36.44-49.78,8.4-18,13.87-38.12,17.21-63.44,2.29-17.4,3.6-37.18,4.06-62.35.12-3.68.19-7.45.19-11.3,0-.3,0-.6,0-.89q0-4.24,0-8.7a245.31,245.31,0,0,0,1.94-31.49A11.72,11.72,0,0,0,218.68.12a11.47,11.47,0,0,0-13.13,11.35A223.8,223.8,0,0,1,204,38.7a11.51,11.51,0,0,0-.4,3v0c-8.43,60.12-43.93,81.78-98,114.79-26.7,16.29-42.64,35.18-47.38,56.13A56.17,56.17,0,0,0,59.55,243c-14.11,13.32-23,27.76-26.47,43.16a64,64,0,0,0,.84,31.75,58.64,58.64,0,0,0,2.57,7.19,86.62,86.62,0,0,0-6.18,17.79,76.49,76.49,0,0,0,6.36,52.07A326.46,326.46,0,0,0,20.17,430,291.78,291.78,0,0,0,2.85,490.82c-3.59,21.91-3.79,41.95-.6,59.57,3.68,20.32,11.82,37.1,24.2,49.89,15.44,16,30.05,23.78,44.67,23.91,10.58.11,20.69-3.63,31.83-11.74,8.87-6.46,17.53-15.09,26.7-24.22,26.64-26.56,56.84-56.65,110.44-56.65s83.81,30.09,110.45,56.65c9.17,9.13,17.83,17.76,26.7,24.22,11,8,21,11.75,31.44,11.74h.39c14.62-.13,29.23-8,44.67-23.91,12.38-12.79,20.52-29.57,24.2-49.89C481.13,532.77,480.93,512.73,477.34,490.82ZM363.15,176.13c20.66,12.61,33.4,26.83,36.84,41.13a34.44,34.44,0,0,1,.94,9.76q-3.54-2.39-7.34-4.71c-53.15-32.42-90.88-55.45-107.32-103.92C306.17,141.36,333.88,158.28,363.15,176.13Zm20.12,87.76c-45.84-28-72.71-51.5-87.95-85.95,22.68,25.12,53.66,44,86.32,64C406.35,257,421,273.39,425.1,290.68a42.64,42.64,0,0,1,1.11,7.76C415.25,286.21,400.84,274.61,383.27,263.89ZM335.82,328.6c-40.25,16.32-81.06,37.95-95.73,45.92-14.66-8-55.47-29.6-95.72-45.92,30.27-9.07,61.84-9.07,95.72-9.07S305.55,319.53,335.82,328.6ZM80.56,217.74c3.28-14.46,16.06-28.85,37-41.61,29.27-17.85,57-34.77,76.88-57.74C178,166.86,140.23,189.89,87.08,222.31q-3.8,2.33-7.33,4.7A34.21,34.21,0,0,1,80.56,217.74Zm-2.47,39.32a11.34,11.34,0,0,0,5.17-4.29A161.59,161.59,0,0,1,99,241.9c32.66-19.93,63.64-38.84,86.31-64-15.23,34.45-42.1,58-87.94,85.95-17.57,10.72-32,22.32-42.94,34.55a42.64,42.64,0,0,1,1.11-7.76C58.35,279,65.9,267.78,78.09,257.06ZM437.26,584.32c-10.95,11.32-20.24,16.86-28.39,16.93h-.16c-12.6,0-26.22-13.57-42-29.27-13.77-13.73-29.38-29.28-49.52-41.65a143.33,143.33,0,0,0-77.13-21.69A143.32,143.32,0,0,0,163,530.33c-20.14,12.37-35.75,27.92-49.52,41.65-15.75,15.7-29.37,29.27-42,29.27h-.15c-8.16-.07-17.45-5.61-28.4-16.93-22.73-23.49-22-61.79-17.44-89.78C31.27,459.32,46.9,419.6,67.3,388.29c23.08-35.43,43.9-47.77,53.48-44.24,51.82,19.1,113.11,53.22,113.72,53.57a11.48,11.48,0,0,0,11.19,0c.61-.35,61.9-34.47,113.72-53.57,9.58-3.53,30.4,8.81,53.48,44.24,20.4,31.31,36,71,41.81,106.25C459.29,522.53,460,560.83,437.26,584.32Z"/><polygon class="cls-1" points="314.04 413.59 282.85 474.44 364.89 455.2 401.22 414.59 306.41 446.79 314.04 413.59"/><polygon class="cls-1" points="194.3 474.44 112.25 455.2 81.01 404.93 170.73 446.79 194.3 474.44"/><path class="cls-1" d="M278.06,258.79l-2.43,5.35s28.41,3.28,44.5,10.53C320.13,274.67,301.34,261.38,278.06,258.79Z"/><path class="cls-1" d="M205.07,258.79l2.43,5.35s-28.41,3.28-44.51,10.53C163,274.67,181.78,261.38,205.07,258.79Z"/><path class="cls-1" d="M241.26,221.93,216,262.27l25.29,19.42,25.29-19.42Zm-9.89,34,9.89-15.77,9.88,15.77-9.88,10.17Z"/></g></g></svg>